# xmcd
#
# Track frame offsets: 
#        183
#        19708
#        39733
#        71578
#        88860
#        117858
#        134595
#        152845
#        171620
#        186025
#        203433
#
# Disc length: 3062 seconds
#
# Revision: 3
# Processed by: cddbd v1.5.2PL0 Copyright (c) Steve Scherf et al.
# Submitted via: ExactAudioCopy v0.99pb4
#
DISCID=990bf40b
DTITLE=Herman van Veen - Voor wie anders
DYEAR=1993
DGENRE=Chanson
TTITLE0=Leugens
TTITLE1=Om wat applaus
TTITLE2=Grand Hotel Deutschland
TTITLE3=Een foto
TTITLE4=Wat je liever maar vergeet
TTITLE5=Ninna Bobo
TTITLE6=Gemengde gevoelens: a. Gemengde gevoelens, b. Pie Jesu, c. Dik
TTITLE6=kertje Dap
TTITLE7=Guigui
TTITLE8=Ben
TTITLE9=Ik wou: a. Komt vrienden, b. Ik wou, c. Komt vrienden
TTITLE10=Als je komt: a. Als je komt, b. En dan
EXTD=
EXTT0=
EXTT1=
EXTT2=
EXTT3=
EXTT4=
EXTT5=
EXTT6=
EXTT7=
EXTT8=
EXTT9=
EXTT10=
PLAYORDER=
